<?xml version="1.0" standalone="no"?>
<!DOCTYPE svg PUBLIC "-//W3C//DTD SVG 20010904//EN"
 "http://www.w3.org/TR/2001/REC-SVG-20010904/DTD/svg10.dtd">
<svg version="1.0" xmlns="http://www.w3.org/2000/svg"
 width="512.000000pt" height="512.000000pt" viewBox="0 0 512.000000 512.000000"
 preserveAspectRatio="xMidYMid meet">
<metadata>
Created by potrace 1.11, written by Peter Selinger 2001-2013
</metadata>
<g transform="translate(0.000000,512.000000) scale(0.100000,-0.100000)"
fill="#000000" stroke="none">
<path d="M2305 5109 c-38 -4 -87 -10 -107 -13 -21 -3 -55 -8 -75 -12 -74 -10
-279 -63 -368 -94 -49 -17 -94 -32 -100 -34 -5 -2 -23 -8 -38 -14 -16 -7 -30
-12 -33 -12 -15 0 -256 -123 -339 -173 -490 -295 -884 -765 -1079 -1288 -49
-131 -91 -272 -112 -374 -2 -11 -6 -31 -9 -45 -45 -228 -56 -640 -22 -850 25
-150 27 -159 53 -265 64 -252 156 -471 305 -725 80 -135 237 -331 378 -470
405 -401 913 -649 1481 -724 124 -16 584 -15 670 2 30 6 71 13 90 16 53 8 93
16 112 22 9 3 25 6 35 8 86 17 277 78 373 118 25 11 63 27 85 36 176 75 429
233 600 375 95 79 294 284 366 377 225 290 378 595 464 925 34 128 40 156 51
225 3 19 7 42 9 50 13 50 20 184 20 390 0 263 -7 343 -49 545 -45 216 -157
510 -275 715 -176 308 -423 589 -696 791 -33 24 -61 47 -63 52 -2 4 -9 7 -16
7 -7 0 -21 9 -31 20 -10 11 -22 20 -26 20 -5 0 -36 18 -69 39 -33 22 -120 69
-193 105 -270 134 -542 215 -841 250 -119 14 -435 17 -551 5z"/>
</g>
</svg>
